REM DIRINDEX 1\2,1\3,1\4,1\5
REM DIRNAME cjc004,folder01,folder02,folder03,folder04
TITLE ""
FILE "1Q_t_0969-0978.mp3" MP3
  TRACK 01 AUDIO
    TITLE "3:cjc004_3811"
    INDEX 01 00:00:00
  TRACK 02 AUDIO
    TITLE "0:"
    INDEX 01 00:01:05
  TRACK 03 AUDIO
    TITLE "4:cjc004_3812"
    INDEX 01 00:01:32
  TRACK 04 AUDIO
    TITLE "0:"
    INDEX 01 00:02:43
  TRACK 05 AUDIO
    TITLE "5:cjc004_3813"
    INDEX 01 00:02:65
  TRACK 06 AUDIO
    TITLE "0:"
    INDEX 01 00:07:52
  TRACK 07 AUDIO
    TITLE "3:cjc004_3814"
    INDEX 01 00:08:26
  TRACK 08 AUDIO
    TITLE "0:"
    INDEX 01 00:09:57
  TRACK 09 AUDIO
    TITLE "4:cjc004_3815"
    INDEX 01 00:10:04
  TRACK 10 AUDIO
    TITLE "0:"
    INDEX 01 00:11:39
  TRACK 11 AUDIO
    TITLE "5:cjc004_3816"
    INDEX 01 00:11:58
  TRACK 12 AUDIO
    TITLE "0:"
    INDEX 01 00:15:62
  TRACK 13 AUDIO
    TITLE "3:cjc004_3817"
    INDEX 01 00:16:38
  TRACK 14 AUDIO
    TITLE "0:"
    INDEX 01 00:17:37
  TRACK 15 AUDIO
    TITLE "4:cjc004_3818"
    INDEX 01 00:17:65
  TRACK 16 AUDIO
    TITLE "0:"
    INDEX 01 00:18:68
  TRACK 17 AUDIO
    TITLE "5:cjc004_3819"
    INDEX 01 00:19:20
  TRACK 18 AUDIO
    TITLE "0:"
    INDEX 01 00:23:53
  TRACK 19 AUDIO
    TITLE "3:cjc004_3820"
    INDEX 01 00:24:27
  TRACK 20 AUDIO
    TITLE "0:"
    INDEX 01 00:25:37
  TRACK 21 AUDIO
    TITLE "4:cjc004_3821"
    INDEX 01 00:25:62
  TRACK 22 AUDIO
    TITLE "0:"
    INDEX 01 00:27:04
  TRACK 23 AUDIO
    TITLE "5:cjc004_3822"
    INDEX 01 00:27:28
  TRACK 24 AUDIO
    TITLE "0:"
    INDEX 01 00:31:29
  TRACK 25 AUDIO
    TITLE "3:cjc004_3823"
    INDEX 01 00:32:05
  TRACK 26 AUDIO
    TITLE "0:"
    INDEX 01 00:33:24
  TRACK 27 AUDIO
    TITLE "4:cjc004_3824"
    INDEX 01 00:33:50
  TRACK 28 AUDIO
    TITLE "0:"
    INDEX 01 00:34:53
  TRACK 29 AUDIO
    TITLE "5:cjc004_3825"
    INDEX 01 00:35:04
  TRACK 30 AUDIO
    TITLE "0:"
    INDEX 01 00:39:66
  TRACK 31 AUDIO
    TITLE "3:cjc004_3826"
    INDEX 01 00:40:46
  TRACK 32 AUDIO
    TITLE "0:"
    INDEX 01 00:41:59
  TRACK 33 AUDIO
    TITLE "4:cjc004_3827"
    INDEX 01 00:42:12
  TRACK 34 AUDIO
    TITLE "0:"
    INDEX 01 00:43:11
  TRACK 35 AUDIO
    TITLE "5:cjc004_3828"
    INDEX 01 00:43:37
  TRACK 36 AUDIO
    TITLE "0:"
    INDEX 01 00:48:08
  TRACK 37 AUDIO
    TITLE "3:cjc004_3829"
    INDEX 01 00:48:57
  TRACK 38 AUDIO
    TITLE "0:"
    INDEX 01 00:50:07
  TRACK 39 AUDIO
    TITLE "4:cjc004_3830"
    INDEX 01 00:50:35
  TRACK 40 AUDIO
    TITLE "0:"
    INDEX 01 00:51:44
  TRACK 41 AUDIO
    TITLE "5:cjc004_3831"
    INDEX 01 00:51:67
  TRACK 42 AUDIO
    TITLE "0:"
    INDEX 01 00:56:59
  TRACK 43 AUDIO
    TITLE "3:cjc004_3832"
    INDEX 01 00:57:39
  TRACK 44 AUDIO
    TITLE "0:"
    INDEX 01 00:58:56
  TRACK 45 AUDIO
    TITLE "4:cjc004_3833"
    INDEX 01 00:59:04
  TRACK 46 AUDIO
    TITLE "0:"
    INDEX 01 01:00:04
  TRACK 47 AUDIO
    TITLE "5:cjc004_3834"
    INDEX 01 01:00:33
  TRACK 48 AUDIO
    TITLE "0:"
    INDEX 01 01:04:07
  TRACK 49 AUDIO
    TITLE "3:cjc004_3835"
    INDEX 01 01:04:58
  TRACK 50 AUDIO
    TITLE "0:"
    INDEX 01 01:06:02
  TRACK 51 AUDIO
    TITLE "4:cjc004_3836"
    INDEX 01 01:06:26
  TRACK 52 AUDIO
    TITLE "0:"
    INDEX 01 01:07:25
  TRACK 53 AUDIO
    TITLE "5:cjc004_3837"
    INDEX 01 01:07:47
  TRACK 54 AUDIO
    TITLE "0:"
    INDEX 01 01:12:62
  TRACK 55 AUDIO
    TITLE "3:cjc004_3838"
    INDEX 01 01:13:42
  TRACK 56 AUDIO
    TITLE "0:"
    INDEX 01 01:14:53
  TRACK 57 AUDIO
    TITLE "4:cjc004_3839"
    INDEX 01 01:15:05
  TRACK 58 AUDIO
    TITLE "0:"
    INDEX 01 01:16:16
  TRACK 59 AUDIO
    TITLE "5:cjc004_3840"
    INDEX 01 01:16:40
  TRACK 60 AUDIO
    TITLE "0:"
    INDEX 01 01:20:44
